<svg width="101" height="116" viewBox="0 0 101 116" fill="none" xmlns="http://www.w3.org/2000/svg">
<g clip-path="url(#clip0_601_2)">
<g filter="url(#filter0_d_601_2)">
<path d="M50.0417 6.55847C28.2032 6.55847 10.4935 23.9399 10.4935 45.375C10.4935 67.1463 27.7959 82.0283 50.0417 101.474C72.2876 82.0283 89.5899 67.1463 89.5899 45.375C89.5899 23.9399 71.8802 6.55847 50.0417 6.55847ZM50.0417 77.7453C32.5654 77.7453 18.4032 63.5791 18.4032 46.1067C18.4032 28.6343 32.5654 14.4681 50.0417 14.4681C67.5181 14.4681 81.6803 28.6343 81.6803 46.1067C81.6803 63.5791 67.5181 77.7453 50.0417 77.7453ZM65.861 46.1067V61.926H53.9965V54.0163H46.0869V61.926H34.2224V46.1067H30.2676L50.0417 26.3326L69.8158 46.1067H65.861ZM61.9062 34.2422L57.9513 30.323V26.3326H61.9062V34.2422Z" fill="white"/>
</g>
</g>
<defs>
<filter id="filter0_d_601_2" x="-4.50647" y="-2.44153" width="109.096" height="124.916" filterUnits="userSpaceOnUse" color-interpolation-filters="sRGB">
<feFlood flood-opacity="0" result="BackgroundImageFix"/>
<feColorMatrix in="SourceAlpha" type="matrix" values="0 0 0 0 0 0 0 0 0 0 0 0 0 0 0 0 0 0 127 0" result="hardAlpha"/>
<feOffset dy="6"/>
<feGaussianBlur stdDeviation="7.5"/>
<feComposite in2="hardAlpha" operator="out"/>
<feColorMatrix type="matrix" values="0 0 0 0 0 0 0 0 0 0.518868 0 0 0 0 1 0 0 0 0.56 0"/>
<feBlend mode="normal" in2="BackgroundImageFix" result="effect1_dropShadow_601_2"/>
<feBlend mode="normal" in="SourceGraphic" in2="effect1_dropShadow_601_2" result="shape"/>
</filter>
<clipPath id="clip0_601_2">
<rect width="101" height="115.429" fill="white"/>
</clipPath>
</defs>
</svg>
