<svg width="77" height="101" viewBox="0 0 77 101" fill="none" xmlns="http://www.w3.org/2000/svg">
<g clip-path="url(#clip0_601_2)">
<g filter="url(#filter0_d_601_2)">
<path d="M38.5 8.34937C21.8508 8.34937 8.34937 21.6006 8.34937 37.9422C8.34937 54.5401 21.5403 65.8858 38.5 80.7108C55.4597 65.8858 68.6506 54.5401 68.6506 37.9422C68.6506 21.6006 55.1491 8.34937 38.5 8.34937ZM38.5 62.6204C25.1764 62.6204 14.3795 51.8205 14.3795 38.5C14.3795 25.1794 25.1764 14.3795 38.5 14.3795C51.8235 14.3795 62.6205 25.1794 62.6205 38.5C62.6205 51.8205 51.8235 62.6204 38.5 62.6204ZM50.5602 38.5V50.5602H41.515V44.5301H35.4849V50.5602H26.4397V38.5H23.4247L38.5 23.4247L53.5753 38.5H50.5602ZM47.5452 29.4548L44.5301 26.4669V23.4247H47.5452V29.4548Z" fill="white"/>
</g>
</g>
<defs>
<filter id="filter0_d_601_2" x="-3.65063" y="8.34937" width="84.3013" height="96.3615" filterUnits="userSpaceOnUse" color-interpolation-filters="sRGB">
<feFlood flood-opacity="0" result="BackgroundImageFix"/>
<feColorMatrix in="SourceAlpha" type="matrix" values="0 0 0 0 0 0 0 0 0 0 0 0 0 0 0 0 0 0 127 0" result="hardAlpha"/>
<feOffset dy="12"/>
<feGaussianBlur stdDeviation="6"/>
<feComposite in2="hardAlpha" operator="out"/>
<feColorMatrix type="matrix" values="0 0 0 0 0 0 0 0 0 0.518868 0 0 0 0 1 0 0 0 0.43 0"/>
<feBlend mode="normal" in2="BackgroundImageFix" result="effect1_dropShadow_601_2"/>
<feBlend mode="normal" in="SourceGraphic" in2="effect1_dropShadow_601_2" result="shape"/>
</filter>
<clipPath id="clip0_601_2">
<rect width="77" height="100.193" fill="white"/>
</clipPath>
</defs>
</svg>
