<svg xmlns="http://www.w3.org/2000/svg" xmlns:xlink="http://www.w3.org/1999/xlink"
    style="margin: auto; background: rgba(241, 242, 243, 0); display: block;" width="214px" height="214px"
    viewBox="0 0 100 100" preserveAspectRatio="xMidYMid">
    <g transform="translate(50 50)">
        <g>
            <animateTransform attributeName="transform" type="rotate" values="0;45" keyTimes="0;1" dur="0.25s"
                repeatCount="indefinite"></animateTransform>
            <path
                d="M22.44994432064365 -5 L28.44994432064365 -5 L28.44994432064365 5 L22.44994432064365 5 A23 23 0 0 1 19.41004177232028 12.338973960454808 L19.41004177232028 12.338973960454808 L23.652682459439568 16.581614647574092 L16.581614647574092 23.652682459439568 L12.338973960454808 19.41004177232028 A23 23 0 0 1 5 22.44994432064365 L5 22.44994432064365 L5 28.44994432064365 L-4.999999999999997 28.44994432064365 L-4.999999999999997 22.44994432064365 A23 23 0 0 1 -12.338973960454805 19.410041772320284 L-12.338973960454805 19.410041772320284 L-16.58161464757409 23.652682459439568 L-23.652682459439564 16.581614647574096 L-19.41004177232028 12.33897396045481 A23 23 0 0 1 -22.44994432064365 5.000000000000001 L-22.44994432064365 5.000000000000001 L-28.44994432064365 5.000000000000002 L-28.44994432064365 -4.999999999999995 L-22.44994432064365 -4.999999999999996 A23 23 0 0 1 -19.410041772320284 -12.338973960454805 L-19.410041772320284 -12.338973960454805 L-23.652682459439568 -16.581614647574092 L-16.58161464757409 -23.652682459439568 L-12.338973960454803 -19.410041772320284 A23 23 0 0 1 -5.000000000000012 -22.449944320643645 L-5.000000000000012 -22.449944320643645 L-5.000000000000013 -28.449944320643645 L5.0000000000000036 -28.44994432064365 L5.000000000000004 -22.44994432064365 A23 23 0 0 1 12.338973960454794 -19.410041772320287 L12.338973960454794 -19.410041772320287 L16.581614647574078 -23.652682459439575 L23.652682459439568 -16.58161464757409 L19.410041772320284 -12.338973960454803 A23 23 0 0 1 22.449944320643645 -5.000000000000014 M0 -15A15 15 0 1 0 0 15 A15 15 0 1 0 0 -15"
                fill="#3c3c3c"></path>
        </g>
    </g>
</svg>